<?xml version="1.0" encoding="UTF-8"?>
<!DOCTYPE svg PUBLIC "-//W3C//DTD SVG 1.1//EN" "http://www.w3.org/Graphics/SVG/1.1/DTD/svg11.dtd">
<!-- Creator: CorelDRAW X7 -->
<svg xmlns="http://www.w3.org/2000/svg" xml:space="preserve" width="145.195mm" height="16.6941mm" version="1.1" style="shape-rendering:geometricPrecision; text-rendering:geometricPrecision; image-rendering:optimizeQuality; fill-rule:evenodd; clip-rule:evenodd"
viewBox="0 0 14268 1641"
 xmlns:xlink="http://www.w3.org/1999/xlink">
 <defs>
  <style type="text/css">
   <![CDATA[
    .fil01 {fill:#504E4E}
    .fil01 {fill:#504E4E;fill-rule:nonzero}
   ]]>
  </style>
 </defs>
 <g id="Capa_x0020_1">
  <metadata id="CorelCorpID_0Corel-Layer"/>
  <g id="_2355173105376">
   <path class="fil01" d="M93 404c-4,-216 132,-330 341,-334 201,-4 324,143 324,387 0,346 -495,887 -758,1129l0 23 924 0 107 -318 -22 0c-80,143 -130,191 -264,191l-518 0c223,-228 699,-649 699,-1034 0,-276 -194,-446 -492,-446 -144,0 -316,62 -402,147l39 255 22 0zm2181 -402c-328,0 -529,312 -529,819 0,508 201,820 529,820 328,0 529,-312 529,-820 0,-507 -201,-819 -529,-819zm0 68c230,0 371,286 371,751 0,466 -141,752 -371,752 -231,0 -372,-286 -372,-752 0,-465 141,-751 372,-751zm3055 -36l0 22 42 0c75,0 137,61 138,137l0 1116 -1225 -1309 -22 0c0,0 21,128 21,281l0 1169c-2,76 -63,136 -139,136l-42 0 0 23 463 0 0 -23 -42 0c-75,0 -136,-59 -138,-134l0 -1120 1227 1309 20 0c0,0 -20,-143 -20,-287l0 -1163c2,-75 63,-135 139,-135l41 0 1 -22 -464 0zm1979 -32c-478,0 -809,328 -809,819 0,492 331,820 809,820 479,0 809,-328 809,-820 0,-491 -330,-819 -809,-819zm0 1571c-382,0 -636,-300 -636,-752 0,-451 254,-751 636,-751 382,0 636,300 636,751 0,452 -254,752 -636,752zm2570 -1540l0 23 19 0c59,0 119,51 86,141l-490 1178 -471 -1178c-33,-90 27,-141 85,-141l20 0 0 -23 -507 0 0 23 18 0c70,0 153,41 198,141l633 1444 20 0c0,-50 84,-232 84,-232l540 -1214c46,-99 129,-139 198,-139l20 0 0 -23 -453 0zm1714 371c-4,-216 132,-330 341,-334 201,-4 324,143 324,387 0,346 -495,887 -758,1129l0 23 924 0 107 -318 -23 0c-79,143 -129,191 -263,191l-518 0c223,-228 699,-649 699,-1034 0,-276 -194,-446 -492,-446 -144,0 -316,62 -402,147l39 255 22 0zm1738 0c-4,-216 132,-330 341,-334 201,-4 324,143 324,387 0,346 -495,887 -758,1129l0 23 924 0 107 -318 -22 0c-80,143 -130,191 -264,191l-518 0c223,-228 699,-649 699,-1034 0,-276 -194,-446 -492,-446 -144,0 -316,62 -402,147l39 255 22 0z"/>
   <path class="fil01" d="M3592 704c38,0 69,31 69,69 0,38 -31,69 -69,69 -39,0 -70,-31 -70,-69 0,-38 31,-69 70,-69z"/>
   <path class="fil01" d="M10906 704c39,0 70,31 70,69 0,38 -31,69 -70,69 -38,0 -69,-31 -69,-69 0,-38 31,-69 69,-69z"/>
  </g>
 </g>
</svg>
