<?xml version="1.0" encoding="UTF-8"?>
<!DOCTYPE svg PUBLIC "-//W3C//DTD SVG 1.1//EN" "http://www.w3.org/Graphics/SVG/1.1/DTD/svg11.dtd">
<!-- Creator: CorelDRAW X7 -->
<svg xmlns="http://www.w3.org/2000/svg" xml:space="preserve" width="26.6545mm" height="24.5403mm" version="1.1" style="shape-rendering:geometricPrecision; text-rendering:geometricPrecision; image-rendering:optimizeQuality; fill-rule:evenodd; clip-rule:evenodd"
viewBox="0 0 2665 2454"
 xmlns:xlink="http://www.w3.org/1999/xlink">
 <defs>
  <style type="text/css">
   <![CDATA[
    .fil0 {fill:#C8AC7E;fill-rule:nonzero}
   ]]>
  </style>
 </defs>
 <g id="Capa_x0020_1">
  <metadata id="CorelCorpID_0Corel-Layer"/>
  <g id="_2355175188656">
   <g>
    <g>
     <path class="fil0" d="M2634 1655c-6,0 -12,-1 -17,-5l-591 -383c-15,-9 -19,-29 -9,-43 9,-15 28,-19 43,-10l591 384c15,9 19,29 9,43 -6,9 -16,14 -26,14z"/>
    </g>
    <g>
     <path class="fil0" d="M31 1655c-10,0 -20,-5 -26,-14 -9,-14 -5,-34 9,-43l591 -384c15,-9 34,-5 44,10 9,14 5,34 -9,43l-591 383c-6,4 -12,5 -18,5z"/>
    </g>
    <g>
     <path class="fil0" d="M2160 1044c-6,0 -12,-1 -17,-5l-814 -527 -811 509c-14,10 -34,5 -43,-10 -9,-14 -5,-34 10,-43l828 -520c10,-7 24,-7 34,0l830 538c15,10 19,29 9,44 -6,9 -16,14 -26,14z"/>
    </g>
    <g>
     <path class="fil0" d="M1330 1300c-9,0 -16,-7 -16,-16l0 -422c0,-9 7,-16 16,-16 8,0 15,7 15,16l0 422c0,9 -7,16 -15,16z"/>
    </g>
    <g>
     <path class="fil0" d="M1532 1089l-404 0c-9,0 -16,-7 -16,-16 0,-9 7,-16 16,-16l404 0c8,0 15,7 15,16 0,9 -7,16 -15,16z"/>
    </g>
    <g>
     <path class="fil0" d="M382 2191c-9,0 -16,-7 -16,-16l0 -457c0,-9 7,-16 16,-16 9,0 16,7 16,16l0 457c0,9 -7,16 -16,16z"/>
    </g>
    <g>
     <path class="fil0" d="M520 2047l-273 0c-9,0 -16,-7 -16,-16 0,-9 7,-16 16,-16l273 0c8,0 15,7 15,16 0,9 -7,16 -15,16z"/>
    </g>
    <g>
     <path class="fil0" d="M520 1901l-273 0c-9,0 -16,-7 -16,-15 0,-9 7,-16 16,-16l273 0c8,0 15,7 15,16 0,8 -7,15 -15,15z"/>
    </g>
    <g>
     <path class="fil0" d="M2296 2191c-9,0 -16,-7 -16,-16l0 -457c0,-9 7,-16 16,-16 9,0 16,7 16,16l0 457c0,9 -7,16 -16,16z"/>
    </g>
    <g>
     <path class="fil0" d="M2434 2047l-273 0c-9,0 -16,-7 -16,-16 0,-9 7,-16 16,-16l273 0c8,0 15,7 15,16 0,9 -7,16 -15,16z"/>
    </g>
    <g>
     <path class="fil0" d="M2434 1901l-273 0c-9,0 -16,-7 -16,-15 0,-9 7,-16 16,-16l273 0c8,0 15,7 15,16 0,8 -7,15 -15,15z"/>
    </g>
   </g>
   <g>
    <g>
     <path class="fil0" d="M1330 554c-15,0 -27,-12 -27,-27l0 -501c0,-14 12,-26 27,-26 14,0 26,12 26,26l0 501c0,15 -12,27 -26,27z"/>
    </g>
    <g>
     <path class="fil0" d="M1478 178l-297 0c-15,0 -26,-11 -26,-26 0,-15 11,-26 26,-26l297 0c15,0 27,11 27,26 0,15 -12,26 -27,26z"/>
    </g>
   </g>
   <g>
    <path class="fil0" d="M2641 1663l-591 -383c-1,-1 -2,-1 -3,-1l0 -260 99 64c4,3 9,4 14,4 9,0 17,-4 22,-12 8,-12 5,-29 -7,-37l-831 -538c-9,-6 -20,-6 -28,0l-828 520c-13,8 -17,24 -9,37 8,12 24,16 37,8l97 -61 0 274c-2,1 -3,1 -5,2l-591 383c-12,8 -16,25 -8,37 5,8 14,12 22,12 5,0 10,-1 15,-4l36 -24 0 744c0,14 12,26 27,26l530 0 6 0 1375 0 537 0c14,0 26,-12 26,-26l0 -739 29 19c5,3 10,4 14,4 9,0 18,-4 23,-12 8,-12 4,-29 -8,-37zm-1312 -1109l0 0 665 430 0 1417 -365 0 0 -557c0,-172 -134,-312 -299,-312 -165,0 -300,140 -300,312l0 557 -364 0 0 -1430 663 -417zm-246 1290l0 0c0,-134 97,-244 220,-258l0 815 -220 0 0 -557zm273 -258l0 0c124,14 220,124 220,258l0 557 -220 0 0 -815zm-1221 64l0 0 478 -310 0 1061 -478 0 0 -748c0,-1 0,-2 0,-3zm2395 751l0 0 -483 0 0 -1060 483 313 0 747z"/>
    <path class="fil0" d="M247 2205l273 0c14,0 26,-12 26,-26l0 -314c0,-99 -73,-180 -163,-180 -90,0 -163,81 -163,180l0 314c0,14 12,26 27,26zm136 -467l0 0c61,0 110,57 110,127l0 287 -220 0 0 -287c0,-70 49,-127 110,-127z"/>
    <path class="fil0" d="M2161 2205l273 0c14,0 26,-12 26,-26l0 -314c0,-99 -73,-180 -163,-180 -90,0 -163,81 -163,180l0 314c0,14 12,26 27,26zm136 -467l0 0c61,0 110,57 110,127l0 287 -220 0 0 -287c0,-70 49,-127 110,-127z"/>
    <path class="fil0" d="M1330 1305c129,0 234,-105 234,-235 0,-129 -105,-235 -234,-235 -130,0 -235,106 -235,235 0,130 105,235 235,235zm0 -417l0 0c100,0 182,82 182,182 0,100 -82,182 -182,182 -101,0 -182,-82 -182,-182 0,-100 81,-182 182,-182z"/>
   </g>
  </g>
 </g>
</svg>
