<?xml version="1.0" encoding="UTF-8"?>
<!DOCTYPE svg PUBLIC "-//W3C//DTD SVG 1.1//EN" "http://www.w3.org/Graphics/SVG/1.1/DTD/svg11.dtd">
<!-- Creator: CorelDRAW X7 -->
<svg xmlns="http://www.w3.org/2000/svg" xml:space="preserve" width="23.8677mm" height="23.5583mm" version="1.1" style="shape-rendering:geometricPrecision; text-rendering:geometricPrecision; image-rendering:optimizeQuality; fill-rule:evenodd; clip-rule:evenodd"
viewBox="0 0 2387 2356"
 xmlns:xlink="http://www.w3.org/1999/xlink">
 <defs>
  <style type="text/css">
   <![CDATA[
    .fil0 {fill:#C8AC7E;fill-rule:nonzero}
   ]]>
  </style>
 </defs>
 <g id="Capa_x0020_1">
  <metadata id="CorelCorpID_0Corel-Layer"/>
  <g id="_2354994267440">
   <g>
    <g>
     <path class="fil0" d="M1068 690c-13,0 -25,-8 -30,-20 0,0 0,0 0,0 0,0 -24,-28 -126,-46 -55,-10 -107,-2 -163,7 -68,11 -139,22 -217,-2 -140,-44 -191,-117 -193,-120 -10,-15 -6,-35 9,-45 15,-10 35,-6 45,9 1,1 42,58 158,94 64,20 124,10 188,0 58,-9 118,-18 185,-7 139,24 168,72 174,85 7,17 -1,36 -18,42 -4,2 -8,3 -12,3z"/>
    </g>
    <path class="fil0" d="M1193 188l-724 -187c-7,-2 -14,-1 -20,3 -6,3 -10,9 -12,16l-192 739c-49,191 49,386 222,465l-185 721c-139,-17 -243,25 -280,116 -1,1 -1,1 -1,2 0,0 0,1 0,1 -1,2 0,3 -1,4 0,2 0,3 0,5 0,2 1,3 1,5 1,2 1,3 2,5 0,1 1,3 2,4 2,1 3,3 4,4 1,1 3,2 4,3 1,0 2,1 3,2 1,0 1,0 2,0 0,0 1,1 1,1l573 148c1,0 2,0 3,1 1,0 1,0 1,0 1,0 2,0 3,0 3,0 6,-1 9,-2 1,0 2,-1 3,-1 2,-1 3,-2 5,-3 1,-1 2,-2 2,-3 2,-1 3,-3 4,-4 0,-1 1,-3 1,-4 1,-1 1,-2 2,-3 0,0 0,-1 0,-2 0,0 0,-1 0,-2 11,-99 -80,-198 -220,-248l185 -717c14,2 29,3 43,3 71,0 140,-19 202,-55 93,-54 158,-141 185,-245l192 -739c3,-15 -5,-29 -19,-33zm-623 1997l0 0 -504 -131c46,-60 150,-76 282,-42 128,33 206,108 222,173zm-215 -226l0 0c-7,-2 -14,-3 -21,-5l183 -711c5,1 10,3 15,4 2,1 4,1 5,1l-182 711zm614 -1012l0 0c-24,90 -80,165 -160,212 -80,47 -174,60 -264,37 -185,-48 -297,-238 -249,-423l185 -714 673 174 -185 714z"/>
    <g>
     <path class="fil0" d="M459 477c-2,0 -3,0 -5,0 -8,-3 -14,-12 -11,-21l81 -309c2,-9 11,-14 20,-12 9,3 14,12 12,21l-81 309c-2,7 -9,12 -16,12z"/>
    </g>
    <g>
     <path class="fil0" d="M358 860c-2,0 -3,0 -5,0 -8,-2 -14,-12 -11,-20l56 -214c2,-9 11,-14 20,-12 9,2 14,11 12,20l-56 214c-2,7 -9,12 -16,12z"/>
    </g>
   </g>
   <g>
    <g>
     <path class="fil0" d="M1476 825c-86,0 -133,-25 -135,-26 -16,-9 -21,-29 -13,-44 9,-16 28,-22 44,-13 1,1 65,32 184,11 66,-12 115,-48 167,-87 47,-35 96,-71 160,-91 135,-43 183,-15 194,-5 14,12 16,32 4,46 -11,13 -32,15 -45,3 0,1 -7,-3 -27,-3 -21,0 -55,4 -106,20 -54,18 -97,49 -142,82 -55,41 -113,84 -193,98 -35,7 -65,9 -92,9z"/>
    </g>
    <path class="fil0" d="M2386 2204c0,-1 1,-3 1,-4 0,-2 0,-4 0,-6 -1,-1 0,-2 -1,-3 0,-1 0,-1 0,-2 -1,-1 0,-1 -1,-2 -36,-92 -163,-139 -309,-118l-167 -722c181,-70 289,-266 244,-462l-171 -744c-3,-14 -17,-23 -31,-20l-729 167c-7,2 -13,6 -16,12 -4,6 -5,13 -4,20l171 745c43,185 208,310 390,310 7,0 15,-1 22,-1l168 726c-131,49 -204,134 -196,232 1,0 1,1 1,2 0,0 0,1 0,1 0,2 1,3 1,4 1,1 1,2 2,3 1,2 2,3 3,5 1,1 2,2 3,2 1,2 3,3 5,4 1,0 2,1 3,1 2,1 6,2 9,2 1,0 1,0 2,0 0,0 1,0 1,-1 1,0 2,0 3,0l577 -132c0,0 1,-1 1,-1 1,0 2,0 2,0 1,-1 2,-2 3,-2 2,-1 3,-2 5,-3 1,-1 2,-2 3,-4 1,-1 2,-2 3,-4 1,-1 1,-3 2,-5zm-961 -1151l0 0 -165 -719 677 -156 165 719c43,187 -74,374 -261,416 -186,43 -373,-74 -416,-260zm413 315l0 0c5,-1 10,-2 15,-3 2,0 3,-1 5,-1l166 714c-7,2 -14,4 -20,6l-166 -716zm204 760l0 0c129,-29 233,1 277,51l-508 117c14,-75 98,-137 231,-168z"/>
    <g>
     <path class="fil0" d="M1425 717c-8,0 -15,-5 -16,-12l-71 -312c-2,-9 4,-18 13,-20 9,-2 18,4 20,12l70 312c2,9 -4,18 -13,20 -1,0 -2,0 -3,0z"/>
    </g>
    <g>
     <path class="fil0" d="M1512 1104c-8,0 -14,-5 -16,-13l-49 -215c-2,-9 4,-18 13,-20 9,-2 17,3 19,12l49 216c2,9 -3,18 -12,20 -2,0 -3,0 -4,0z"/>
    </g>
   </g>
  </g>
 </g>
</svg>
