<?xml version="1.0" encoding="UTF-8"?>
<!DOCTYPE svg PUBLIC "-//W3C//DTD SVG 1.1//EN" "http://www.w3.org/Graphics/SVG/1.1/DTD/svg11.dtd">
<!-- Creator: CorelDRAW X7 -->
<svg xmlns="http://www.w3.org/2000/svg" xml:space="preserve" width="35.701mm" height="24.1725mm" version="1.1" style="shape-rendering:geometricPrecision; text-rendering:geometricPrecision; image-rendering:optimizeQuality; fill-rule:evenodd; clip-rule:evenodd"
viewBox="0 0 3570 2417"
 xmlns:xlink="http://www.w3.org/1999/xlink">
 <defs>
  <style type="text/css">
   <![CDATA[
    .fil0 {fill:#C6A87A}
   ]]>
  </style>
 </defs>
 <g id="Capa_x0020_1">
  <metadata id="CorelCorpID_0Corel-Layer"/>
  <path class="fil0" d="M790 16c-128,32 -285,195 -386,389 -67,133 -77,175 -67,298 8,106 25,158 69,202l57 61 -232 8 -231 7 0 173c0,165 2,172 62,179l61 8 -7 512c-5,416 0,517 27,542 27,19 458,24 1669,22l1635 -8 7 -534c5,-532 5,-534 62,-542 49,-7 54,-19 54,-179l0 -173 -212 -7 -211 -8 59 -115c46,-89 56,-141 46,-219 -27,-207 -226,-505 -393,-591 -111,-57 -308,-50 -449,17 -133,64 -366,290 -440,428 -47,84 -54,89 -175,89 -123,0 -126,-2 -217,-135 -234,-338 -524,-493 -788,-424l0 0zm360 121c130,64 246,170 352,325 89,128 91,135 52,189 -23,32 -40,77 -40,101 0,74 -42,72 -214,-15 -222,-110 -372,-147 -549,-130 -175,15 -271,59 -313,140 -29,57 -32,55 -32,-64 0,-88 20,-160 64,-243 187,-353 397,-446 680,-303zm1696 -15c89,44 207,197 283,364 52,114 59,158 45,244l-18 104 -22 -77c-27,-108 -130,-145 -389,-145 -194,0 -224,7 -426,106 -120,56 -224,103 -229,103 -5,0 -9,-19 -9,-44 0,-22 -20,-76 -47,-116 -45,-74 -45,-74 22,-172 76,-113 281,-310 372,-357 138,-77 283,-79 418,-10l0 0zm-913 576c34,35 49,81 49,160l0 113 -190 -7 -192 -7 3 -91c5,-146 66,-217 182,-217 67,0 116,17 148,49l0 0zm-776 54c81,32 197,91 259,133l111 72 -389 7c-323,5 -404,0 -476,-34 -106,-50 -177,-148 -138,-188 84,-83 417,-78 633,10zm1793 -51c113,29 138,78 76,150 -91,98 -182,118 -593,118 -436,-3 -439,-3 -143,-153 268,-140 458,-172 660,-115l0 0zm-1534 453l0 110 -677 0 -677 0 0 -110 0 -111 677 0 677 0 0 111zm684 9l8 101 -308 0 -310 0 0 -105 0 -104 300 5 303 3 7 100 0 0zm1409 -9l0 110 -665 0 -665 0 0 -110 0 -111 665 0 665 0 0 111zm-2093 689l0 505 -616 0 -615 0 0 -505 0 -505 615 0 616 0 0 505zm689 0l0 505 -308 0 -307 0 0 -505 0 -505 307 0 308 0 0 505zm1280 0l0 505 -603 0 -603 0 0 -505 0 -505 603 0 603 0 0 505z"/>
 </g>
</svg>
