<svg xmlns="http://www.w3.org/2000/svg" xml:space="preserve" width="102.581mm" height="10.8318mm" version="1.1" style="shape-rendering:geometricPrecision; text-rendering:geometricPrecision; image-rendering:optimizeQuality; fill-rule:evenodd; clip-rule:evenodd"
viewBox="0 0 10009 1057"
 xmlns:xlink="http://www.w3.org/1999/xlink">
 <defs>
  <style type="text/css">
   <![CDATA[
    .fil3 {fill:#EBD0A5}
   ]]>
  </style>
 </defs>
 <g id="Capa_x0020_1">
  <metadata id="CorelCorpID_0Corel-Layer"/>
  <path class="fil3" d="M7744 439c-69,-22 -137,-43 -205,-65 151,-127 320,-132 495,-96 3,1 6,3 10,4 80,20 164,47 223,107 60,61 84,144 76,225 -204,-44 -404,-114 -599,-175zm-4222 313c-94,79 -224,142 -341,72 -8,-5 -16,-11 -24,-17 163,-22 332,-101 469,-168 2,-1 5,-2 7,-3 -35,41 -70,81 -111,116zm-1856 -137c-8,-77 12,-156 67,-217 59,-66 147,-95 231,-116 4,-1 8,-3 11,-4 174,-36 344,-31 495,96 -24,8 -47,15 -71,23 -239,75 -484,165 -733,218zm2984 -106c-96,-134 -216,-250 -362,-332 -254,-144 -543,-152 -824,-96 -303,60 -601,165 -896,262 -229,-229 -523,-194 -808,-99 -185,61 -359,112 -555,116 -97,1 -192,7 -267,-65 -34,-33 -65,-81 -71,-128 -1,-15 -5,-72 9,-82 47,-32 2,-110 -45,-77 -100,69 -48,237 12,313 121,156 321,138 499,121 97,-9 197,-36 297,-68 -10,15 -20,32 -28,49 -31,65 -41,138 -34,209 -88,16 -177,26 -266,28 -16,0 -32,0 -47,-1 -6,-1 -12,-1 -19,0 -334,-11 -627,-166 -840,-428 -37,-45 -100,19 -64,63 180,220 421,381 703,434 23,4 46,8 69,10 -145,88 -294,170 -458,209 -48,11 -99,18 -151,20 -2,0 -3,-1 -4,-1 -92,-8 -173,-51 -216,-135 -23,-44 -47,-120 3,-156 17,-13 55,-15 75,-15 35,-7 50,7 46,44 16,22 14,42 -4,57 -35,46 43,91 77,45 54,-74 59,-176 -35,-219 -82,-37 -212,-17 -258,65 -46,81 -10,186 40,258 -60,-31 -110,-77 -145,-141 -27,-51 -104,-6 -77,45 108,200 354,263 567,238 254,-30 480,-170 693,-303 110,1 220,-11 329,-31 13,43 34,83 61,119 85,110 235,151 363,100 137,-55 193,-155 159,-300 -13,-56 -99,-33 -86,24 28,119 -44,189 -159,208 -118,19 -207,-69 -246,-170 102,-22 203,-51 302,-81 352,-106 702,-219 1053,-329 328,-102 687,-218 1028,-110 111,35 209,90 296,160 -147,-23 -304,14 -440,66 -8,3 -15,6 -22,9 -1,0 -2,0 -2,0 -17,5 -32,12 -47,19 -171,73 -332,167 -506,232 -83,31 -174,57 -260,60 -6,-12 -11,-24 -15,-37 -17,-68 69,-239 156,-163 44,38 107,-25 64,-63 -104,-89 -258,-5 -300,110 -17,49 -16,98 -3,145 -72,-15 -138,-54 -188,-129 -31,-48 -109,-3 -77,45 83,123 193,173 313,180 34,45 79,82 129,104 138,62 283,6 395,-84 64,-51 121,-111 172,-176 54,-69 104,-129 191,-157 4,-1 8,-3 11,-5 100,-40 203,-69 310,-72 114,-5 230,18 306,109 26,32 50,66 72,101 40,63 74,128 104,196 14,30 45,28 64,10 23,-9 40,-35 23,-62 -51,-83 -101,-184 -166,-268zm2202 298c-8,6 -16,12 -24,17 -119,70 -247,7 -341,-72 -42,-35 -77,-75 -111,-116 2,1 4,2 6,3 138,67 307,146 470,168zm3074 -38c-35,63 -85,109 -145,141 50,-72 85,-177 40,-258 -46,-82 -177,-102 -258,-65 -94,43 -90,145 -35,219 34,46 111,1 77,-45 -63,-84 37,-117 100,-92 70,29 46,111 20,162 -44,84 -124,127 -216,135 -1,0 -2,1 -3,1 -53,-2 -104,-9 -152,-20 -164,-40 -314,-121 -458,-209 309,-41 575,-204 771,-444 36,-44 -27,-108 -63,-63 -195,239 -462,401 -773,425 -22,2 -44,3 -66,4 -8,-3 -15,-2 -22,0 -105,1 -208,-10 -311,-28 7,-67 -2,-136 -29,-196 -10,-23 -22,-43 -35,-62 101,31 201,59 298,68 173,16 370,36 492,-111 63,-76 124,-251 20,-323 -48,-33 -92,45 -45,77 11,8 10,59 9,71 -4,48 -31,95 -63,130 -72,75 -161,75 -258,74 -203,-3 -381,-53 -572,-116 -285,-95 -578,-130 -808,98 -253,-82 -507,-165 -764,-231 -285,-73 -589,-101 -865,21 -184,80 -332,212 -448,370 -68,85 -119,190 -171,275 -17,27 -1,53 22,62 20,18 51,20 64,-10 26,-58 55,-114 87,-168 28,-45 57,-89 90,-129 73,-87 180,-111 290,-110 112,2 220,31 325,72 3,3 7,5 12,6 153,50 231,226 352,324 114,94 261,158 406,93 50,-22 95,-59 128,-104 121,-7 231,-56 313,-180 32,-48 -45,-93 -77,-45 -50,75 -115,114 -188,129 13,-45 15,-93 0,-140 -39,-118 -197,-205 -302,-115 -44,38 20,101 63,63 35,-29 101,5 124,29 28,30 39,72 35,112 -2,20 -9,40 -18,59 -81,-3 -166,-27 -244,-55 -180,-64 -346,-162 -521,-236 -15,-8 -31,-15 -47,-20 -1,0 -2,0 -2,0 -7,-3 -15,-6 -22,-9 -138,-52 -294,-88 -442,-66 62,-50 131,-93 206,-126 312,-138 658,-63 971,31 352,105 702,219 1052,328 148,46 299,94 452,128 -37,92 -114,177 -223,173 -48,-2 -115,-26 -152,-59 -46,-42 -44,-97 -30,-153 13,-56 -73,-80 -87,-24 -32,137 16,238 146,294 132,57 286,23 376,-94 27,-35 48,-76 62,-118 109,20 219,32 330,30 213,133 438,273 692,303 213,25 459,-38 567,-238 27,-51 -50,-96 -77,-45z"/>
 </g>
</svg>
