<?xml version="1.0" encoding="UTF-8"?>
<!DOCTYPE svg PUBLIC "-//W3C//DTD SVG 1.1//EN" "http://www.w3.org/Graphics/SVG/1.1/DTD/svg11.dtd">
<!-- Creator: CorelDRAW X7 -->
<svg xmlns="http://www.w3.org/2000/svg" xml:space="preserve" width="32.0424mm" height="16.2898mm" version="1.1" style="shape-rendering:geometricPrecision; text-rendering:geometricPrecision; image-rendering:optimizeQuality; fill-rule:evenodd; clip-rule:evenodd"
viewBox="0 0 3204 1629"
 xmlns:xlink="http://www.w3.org/1999/xlink">
 <defs>
  <style type="text/css">
   <![CDATA[
    .fil0 {fill:#C6A87A}
   ]]>
  </style>
 </defs>
 <g id="Capa_x0020_1">
  <metadata id="CorelCorpID_0Corel-Layer"/>
  <g id="_2355167664672">
   <g>
    <path class="fil0" d="M45 45l-45 43 0 726 0 727 45 43 43 45 1514 0 1515 0 42 -45 45 -43 0 -727 0 -726 -45 -43 -42 -45 -1515 0 -1514 0 -43 45zm2783 107c-64,34 -365,190 -671,346l-555 282 -456 -232c-251,-127 -553,-283 -672,-346l-214 -112 1342 1 1343 0 -117 61 0 0zm-1849 428c13,13 -852,888 -875,888 -16,0 -20,-1312 -6,-1328 9,-8 856,415 881,440l0 0zm2136 226c0,363 -6,662 -15,662 -25,0 -887,-875 -875,-888 22,-23 843,-435 868,-437 16,0 22,143 22,663zm-1755 -38l242 123 254 -128 256 -128 453 453 451 451 -1414 0 -1414 0 447 -447c246,-247 455,-448 466,-446 9,0 127,56 259,122l0 0z"/>
   </g>
  </g>
 </g>
</svg>
